# xmcd
#
# Track frame offsets: 
#        150
#        34140
#        80834
#        153322
#        183322
#        219436
#
# Disc length: 3748 seconds
#
# Revision: 0
# Processed by: cddbd v1.5.1PL0 Copyright (c) Steve Scherf et al.
# Submitted via: ExactAudioCopy v0.95b2
#
DISCID=490ea206
DTITLE=Lustmord - Heresy
DYEAR=1990
DGENRE=Electronic
TTITLE0=Part I
TTITLE1=Part II
TTITLE2=Part III
TTITLE3=Part IV
TTITLE4=Part V
TTITLE5=Part VI
EXTD=
EXTT0=
EXTT1=
EXTT2=
EXTT3=
EXTT4=
EXTT5=
PLAYORDER=
